<svg xmlns="http://www.w3.org/2000/svg" viewBox="0 0 100 116" width="100" height="116">
  <defs>
    <linearGradient id="d" x1="0" y1="0" x2="1" y2="1">
      <stop offset="0" stop-color="#3ba9e0"/>
      <stop offset="1" stop-color="#14294b"/>
    </linearGradient>
    <linearGradient id="w" x1="0" y1="0" x2="1" y2="0">
      <stop offset="0" stop-color="#29abe2"/>
      <stop offset="1" stop-color="#7fd0f2"/>
    </linearGradient>
  </defs>
  <path d="M50 6C50 6 88 46 88 74A38 38 0 1 1 12 74C12 46 50 6 50 6Z" fill="url(#d)"/>
  <path d="M18 80q16-13 32 0t32 0v14a38 38 0 0 1-64 0Z" fill="url(#w)" opacity="0.92"/>
  <path d="M50 20c9 22 18 40 13 60-4-13-12-24-19-38Z" fill="#ffffff" opacity="0.3"/>
</svg>
